<svg id="visual" viewBox="0 0 400 400" width="400" height="400" xmlns="http://www.w3.org/2000/svg" xmlns:xlink="http://www.w3.org/1999/xlink" version="1.1"><rect x="0" y="0" width="400" height="400" fill="#00101C"></rect><g transform="translate(215.55156067759805 216.21185655273715)"><path d="M82.9 -149.1C99.8 -133.8 100.5 -96.2 98.2 -67.6C95.9 -39 90.4 -19.5 92.3 1.1C94.2 21.7 103.4 43.3 95.5 54.2C87.6 65 62.5 65 43.8 75.8C25 86.6 12.5 108.3 -6.2 119.1C-25 130 -50 129.9 -67.9 118.6C-85.8 107.3 -96.6 84.6 -108.1 63C-119.6 41.3 -131.8 20.7 -130.1 1C-128.3 -18.7 -112.7 -37.3 -105.3 -66.2C-98 -95.1 -99 -134.1 -82.8 -149.8C-66.7 -165.5 -33.3 -157.7 -0.2 -157.4C33 -157.2 66 -164.3 82.9 -149.1" fill="#297EA6"></path></g></svg>