<svg id="visual" viewBox="0 0 400 400" width="400" height="400" xmlns="http://www.w3.org/2000/svg" xmlns:xlink="http://www.w3.org/1999/xlink" version="1.1"><rect x="0" y="0" width="400" height="400" fill="#00101C"></rect><g transform="translate(220.76897818522932 204.93209299448918)"><path d="M35.8 -82.1C46.7 -55.8 55.8 -46.7 63.6 -35.8C71.3 -25 77.7 -12.5 79.5 1.1C81.4 14.7 78.8 29.3 81.5 58.2C84.1 87.1 92.1 130.1 79.4 140.3C66.7 150.5 33.3 127.7 7.4 114.9C-18.5 102 -37 99.1 -63.1 96.7C-89.3 94.3 -123 92.4 -127.4 76.4C-131.8 60.3 -106.9 30.2 -104 1.7C-101.1 -26.8 -120.3 -53.7 -113.5 -65.5C-106.6 -77.3 -73.8 -74.2 -50.6 -93.3C-27.3 -112.3 -13.7 -153.7 -0.6 -152.7C12.5 -151.7 25 -108.3 35.8 -82.1" fill="#297EA6"></path></g></svg>